<mxfile host="app.diagrams.net" agent="Mozilla/5.0 (Windows NT 10.0; Win64; x64) AppleWebKit/537.36 (KHTML, like Gecko) Chrome/139.0.0.0 Safari/537.36" version="28.1.1">
  <diagram name="PÃ¡gina-1" id="DLSlPS5EdyWggtN-QKrr">
    <mxGraphModel dx="1169" dy="489" grid="1" gridSize="10" guides="1" tooltips="1" connect="1" arrows="1" fold="1" page="1" pageScale="1" pageWidth="827" pageHeight="1169" math="0" shadow="0">
      <root>
        <mxCell id="0" />
        <mxCell id="1" parent="0" />
        <mxCell id="KKY4X85VJavsMQhiZZJZ-1" value="" style="rounded=0;whiteSpace=wrap;html=1;" vertex="1" parent="1">
          <mxGeometry x="460" y="320" width="720" height="440" as="geometry" />
        </mxCell>
        <mxCell id="KKY4X85VJavsMQhiZZJZ-2" value="&lt;font style=&quot;vertical-align: inherit;&quot; dir=&quot;auto&quot;&gt;&lt;font style=&quot;vertical-align: inherit;&quot; dir=&quot;auto&quot;&gt;administrador&lt;/font&gt;&lt;/font&gt;" style="shape=umlActor;verticalLabelPosition=bottom;verticalAlign=top;html=1;outlineConnect=0;" vertex="1" parent="1">
          <mxGeometry x="350" y="350" width="30" height="60" as="geometry" />
        </mxCell>
        <mxCell id="KKY4X85VJavsMQhiZZJZ-3" value="&lt;font style=&quot;vertical-align: inherit;&quot; dir=&quot;auto&quot;&gt;&lt;font style=&quot;vertical-align: inherit;&quot; dir=&quot;auto&quot;&gt;cliente&lt;/font&gt;&lt;/font&gt;" style="shape=umlActor;verticalLabelPosition=bottom;verticalAlign=top;html=1;outlineConnect=0;" vertex="1" parent="1">
          <mxGeometry x="1350" y="485" width="30" height="60" as="geometry" />
        </mxCell>
        <mxCell id="KKY4X85VJavsMQhiZZJZ-4" value="&lt;font style=&quot;vertical-align: inherit;&quot; dir=&quot;auto&quot;&gt;&lt;font style=&quot;vertical-align: inherit;&quot; dir=&quot;auto&quot;&gt;&lt;font style=&quot;vertical-align: inherit;&quot; dir=&quot;auto&quot;&gt;&lt;font style=&quot;vertical-align: inherit;&quot; dir=&quot;auto&quot;&gt;&lt;font style=&quot;vertical-align: inherit;&quot; dir=&quot;auto&quot;&gt;&lt;font style=&quot;vertical-align: inherit;&quot; dir=&quot;auto&quot;&gt;reproducir&lt;/font&gt;&lt;/font&gt;&lt;/font&gt;&lt;/font&gt;&lt;/font&gt;&lt;/font&gt;" style="ellipse;whiteSpace=wrap;html=1;" vertex="1" parent="1">
          <mxGeometry x="750" y="515" width="50" height="30" as="geometry" />
        </mxCell>
        <mxCell id="KKY4X85VJavsMQhiZZJZ-6" value="&lt;font style=&quot;vertical-align: inherit;&quot; dir=&quot;auto&quot;&gt;&lt;font style=&quot;vertical-align: inherit;&quot; dir=&quot;auto&quot;&gt;buscar&lt;/font&gt;&lt;/font&gt;" style="ellipse;whiteSpace=wrap;html=1;" vertex="1" parent="1">
          <mxGeometry x="989" y="420" width="60" height="40" as="geometry" />
        </mxCell>
        <mxCell id="KKY4X85VJavsMQhiZZJZ-8" value="&lt;font style=&quot;vertical-align: inherit;&quot; dir=&quot;auto&quot;&gt;&lt;font style=&quot;vertical-align: inherit;&quot; dir=&quot;auto&quot;&gt;&lt;font style=&quot;vertical-align: inherit;&quot; dir=&quot;auto&quot;&gt;&lt;font style=&quot;vertical-align: inherit;&quot; dir=&quot;auto&quot;&gt;Lista de play creada&lt;/font&gt;&lt;/font&gt;&lt;/font&gt;&lt;/font&gt;" style="ellipse;whiteSpace=wrap;html=1;" vertex="1" parent="1">
          <mxGeometry x="999" y="570" width="81" height="30" as="geometry" />
        </mxCell>
        <mxCell id="KKY4X85VJavsMQhiZZJZ-9" value="&lt;font style=&quot;vertical-align: inherit;&quot; dir=&quot;auto&quot;&gt;&lt;font style=&quot;vertical-align: inherit;&quot; dir=&quot;auto&quot;&gt;&lt;font style=&quot;vertical-align: inherit;&quot; dir=&quot;auto&quot;&gt;&lt;font style=&quot;vertical-align: inherit;&quot; dir=&quot;auto&quot;&gt;pago&lt;/font&gt;&lt;/font&gt;&lt;/font&gt;&lt;/font&gt;" style="ellipse;whiteSpace=wrap;html=1;" vertex="1" parent="1">
          <mxGeometry x="949" y="640" width="50" height="30" as="geometry" />
        </mxCell>
        <mxCell id="KKY4X85VJavsMQhiZZJZ-11" value="&lt;font style=&quot;vertical-align: inherit;&quot; dir=&quot;auto&quot;&gt;&lt;font style=&quot;vertical-align: inherit;&quot; dir=&quot;auto&quot;&gt;&lt;font style=&quot;vertical-align: inherit;&quot; dir=&quot;auto&quot;&gt;&lt;font style=&quot;vertical-align: inherit;&quot; dir=&quot;auto&quot;&gt;contenido&lt;/font&gt;&lt;/font&gt;&lt;/font&gt;&lt;/font&gt;" style="ellipse;whiteSpace=wrap;html=1;" vertex="1" parent="1">
          <mxGeometry x="540" y="350" width="79" height="40" as="geometry" />
        </mxCell>
        <mxCell id="KKY4X85VJavsMQhiZZJZ-12" value="&lt;font style=&quot;vertical-align: inherit;&quot; dir=&quot;auto&quot;&gt;&lt;font style=&quot;vertical-align: inherit;&quot; dir=&quot;auto&quot;&gt;&lt;font style=&quot;vertical-align: inherit;&quot; dir=&quot;auto&quot;&gt;&lt;font style=&quot;vertical-align: inherit;&quot; dir=&quot;auto&quot;&gt;nuevo contenido&lt;/font&gt;&lt;/font&gt;&lt;/font&gt;&lt;/font&gt;" style="ellipse;whiteSpace=wrap;html=1;" vertex="1" parent="1">
          <mxGeometry x="550" y="420" width="70" height="40" as="geometry" />
        </mxCell>
        <mxCell id="KKY4X85VJavsMQhiZZJZ-13" value="" style="endArrow=none;html=1;rounded=0;exitX=0;exitY=0.5;exitDx=0;exitDy=0;" edge="1" parent="1" source="KKY4X85VJavsMQhiZZJZ-11" target="KKY4X85VJavsMQhiZZJZ-2">
          <mxGeometry width="50" height="50" relative="1" as="geometry">
            <mxPoint x="820" y="550" as="sourcePoint" />
            <mxPoint x="870" y="500" as="targetPoint" />
          </mxGeometry>
        </mxCell>
        <mxCell id="KKY4X85VJavsMQhiZZJZ-14" value="" style="endArrow=none;html=1;rounded=0;exitX=0;exitY=0.5;exitDx=0;exitDy=0;" edge="1" parent="1" source="KKY4X85VJavsMQhiZZJZ-12" target="KKY4X85VJavsMQhiZZJZ-2">
          <mxGeometry width="50" height="50" relative="1" as="geometry">
            <mxPoint x="550" y="432" as="sourcePoint" />
            <mxPoint x="380" y="400" as="targetPoint" />
          </mxGeometry>
        </mxCell>
        <mxCell id="KKY4X85VJavsMQhiZZJZ-16" value="" style="endArrow=none;html=1;rounded=0;exitX=0;exitY=0.3333333333333333;exitDx=0;exitDy=0;exitPerimeter=0;entryX=1;entryY=0.5;entryDx=0;entryDy=0;" edge="1" parent="1" source="KKY4X85VJavsMQhiZZJZ-23" target="KKY4X85VJavsMQhiZZJZ-4">
          <mxGeometry width="50" height="50" relative="1" as="geometry">
            <mxPoint x="1040" y="442" as="sourcePoint" />
            <mxPoint x="870" y="410" as="targetPoint" />
          </mxGeometry>
        </mxCell>
        <mxCell id="KKY4X85VJavsMQhiZZJZ-17" value="" style="endArrow=none;html=1;rounded=0;entryX=1;entryY=0.5;entryDx=0;entryDy=0;" edge="1" parent="1" source="KKY4X85VJavsMQhiZZJZ-25" target="KKY4X85VJavsMQhiZZJZ-6">
          <mxGeometry width="50" height="50" relative="1" as="geometry">
            <mxPoint x="1050" y="482" as="sourcePoint" />
            <mxPoint x="880" y="450" as="targetPoint" />
          </mxGeometry>
        </mxCell>
        <mxCell id="KKY4X85VJavsMQhiZZJZ-18" value="" style="endArrow=none;html=1;rounded=0;exitX=-0.021;exitY=0.349;exitDx=0;exitDy=0;exitPerimeter=0;entryX=1;entryY=0.5;entryDx=0;entryDy=0;" edge="1" parent="1" source="KKY4X85VJavsMQhiZZJZ-27" target="KKY4X85VJavsMQhiZZJZ-8">
          <mxGeometry width="50" height="50" relative="1" as="geometry">
            <mxPoint x="1050" y="522" as="sourcePoint" />
            <mxPoint x="880" y="490" as="targetPoint" />
          </mxGeometry>
        </mxCell>
        <mxCell id="KKY4X85VJavsMQhiZZJZ-19" value="" style="endArrow=none;html=1;rounded=0;entryX=1;entryY=0.5;entryDx=0;entryDy=0;" edge="1" parent="1" source="KKY4X85VJavsMQhiZZJZ-29" target="KKY4X85VJavsMQhiZZJZ-9">
          <mxGeometry width="50" height="50" relative="1" as="geometry">
            <mxPoint x="1050" y="562" as="sourcePoint" />
            <mxPoint x="880" y="530" as="targetPoint" />
          </mxGeometry>
        </mxCell>
        <mxCell id="KKY4X85VJavsMQhiZZJZ-20" value="" style="endArrow=none;html=1;rounded=0;entryX=0.5;entryY=1;entryDx=0;entryDy=0;exitX=0.946;exitY=0.419;exitDx=0;exitDy=0;exitPerimeter=0;" edge="1" parent="1" source="KKY4X85VJavsMQhiZZJZ-31" target="KKY4X85VJavsMQhiZZJZ-12">
          <mxGeometry width="50" height="50" relative="1" as="geometry">
            <mxPoint x="1050" y="602" as="sourcePoint" />
            <mxPoint x="610.0000000000025" y="685" as="targetPoint" />
          </mxGeometry>
        </mxCell>
        <mxCell id="KKY4X85VJavsMQhiZZJZ-21" value="&lt;font style=&quot;vertical-align: inherit;&quot; dir=&quot;auto&quot;&gt;&lt;font style=&quot;vertical-align: inherit;&quot; dir=&quot;auto&quot;&gt;10&lt;/font&gt;&lt;/font&gt;" style="text;html=1;align=center;verticalAlign=middle;resizable=0;points=[];autosize=1;strokeColor=none;fillColor=none;" vertex="1" parent="1">
          <mxGeometry x="800" y="250" width="40" height="30" as="geometry" />
        </mxCell>
        <mxCell id="KKY4X85VJavsMQhiZZJZ-22" value="" style="endArrow=none;html=1;rounded=0;exitX=0;exitY=0.3333333333333333;exitDx=0;exitDy=0;exitPerimeter=0;entryX=1;entryY=0.5;entryDx=0;entryDy=0;" edge="1" parent="1" source="KKY4X85VJavsMQhiZZJZ-3" target="KKY4X85VJavsMQhiZZJZ-23">
          <mxGeometry width="50" height="50" relative="1" as="geometry">
            <mxPoint x="1260" y="550" as="sourcePoint" />
            <mxPoint x="1030" y="365" as="targetPoint" />
          </mxGeometry>
        </mxCell>
        <mxCell id="KKY4X85VJavsMQhiZZJZ-23" value="&lt;font style=&quot;vertical-align: inherit;&quot; dir=&quot;auto&quot;&gt;&lt;font style=&quot;vertical-align: inherit;&quot; dir=&quot;auto&quot;&gt;include&lt;/font&gt;&lt;/font&gt;" style="text;html=1;align=center;verticalAlign=middle;resizable=0;points=[];autosize=1;strokeColor=none;fillColor=none;" vertex="1" parent="1">
          <mxGeometry x="1090" y="490" width="60" height="30" as="geometry" />
        </mxCell>
        <mxCell id="KKY4X85VJavsMQhiZZJZ-24" value="" style="endArrow=none;html=1;rounded=0;entryX=1;entryY=0.5;entryDx=0;entryDy=0;" edge="1" parent="1" source="KKY4X85VJavsMQhiZZJZ-3" target="KKY4X85VJavsMQhiZZJZ-25">
          <mxGeometry width="50" height="50" relative="1" as="geometry">
            <mxPoint x="1260" y="553" as="sourcePoint" />
            <mxPoint x="1030" y="440" as="targetPoint" />
            <Array as="points" />
          </mxGeometry>
        </mxCell>
        <mxCell id="KKY4X85VJavsMQhiZZJZ-25" value="&lt;font style=&quot;vertical-align: inherit;&quot; dir=&quot;auto&quot;&gt;&lt;font style=&quot;vertical-align: inherit;&quot; dir=&quot;auto&quot;&gt;include&lt;/font&gt;&lt;/font&gt;" style="text;html=1;align=center;verticalAlign=middle;resizable=0;points=[];autosize=1;strokeColor=none;fillColor=none;" vertex="1" parent="1">
          <mxGeometry x="1090" y="420" width="60" height="30" as="geometry" />
        </mxCell>
        <mxCell id="KKY4X85VJavsMQhiZZJZ-26" value="" style="endArrow=none;html=1;rounded=0;exitX=0.5;exitY=0.5;exitDx=0;exitDy=0;exitPerimeter=0;entryX=1;entryY=0.5;entryDx=0;entryDy=0;" edge="1" parent="1" source="KKY4X85VJavsMQhiZZJZ-3" target="KKY4X85VJavsMQhiZZJZ-27">
          <mxGeometry width="50" height="50" relative="1" as="geometry">
            <mxPoint x="1275" y="560" as="sourcePoint" />
            <mxPoint x="1030" y="505" as="targetPoint" />
          </mxGeometry>
        </mxCell>
        <mxCell id="KKY4X85VJavsMQhiZZJZ-27" value="&lt;font style=&quot;vertical-align: inherit;&quot; dir=&quot;auto&quot;&gt;&lt;font style=&quot;vertical-align: inherit;&quot; dir=&quot;auto&quot;&gt;include&lt;/font&gt;&lt;/font&gt;" style="text;html=1;align=center;verticalAlign=middle;resizable=0;points=[];autosize=1;strokeColor=none;fillColor=none;" vertex="1" parent="1">
          <mxGeometry x="1090" y="555" width="60" height="30" as="geometry" />
        </mxCell>
        <mxCell id="KKY4X85VJavsMQhiZZJZ-28" value="" style="endArrow=none;html=1;rounded=0;entryX=1;entryY=0.5;entryDx=0;entryDy=0;" edge="1" parent="1" source="KKY4X85VJavsMQhiZZJZ-3" target="KKY4X85VJavsMQhiZZJZ-29">
          <mxGeometry width="50" height="50" relative="1" as="geometry">
            <mxPoint x="1260" y="562" as="sourcePoint" />
            <mxPoint x="1030" y="585" as="targetPoint" />
          </mxGeometry>
        </mxCell>
        <mxCell id="KKY4X85VJavsMQhiZZJZ-29" value="&lt;font style=&quot;vertical-align: inherit;&quot; dir=&quot;auto&quot;&gt;&lt;font style=&quot;vertical-align: inherit;&quot; dir=&quot;auto&quot;&gt;include&lt;/font&gt;&lt;/font&gt;" style="text;html=1;align=center;verticalAlign=middle;resizable=0;points=[];autosize=1;strokeColor=none;fillColor=none;" vertex="1" parent="1">
          <mxGeometry x="1090" y="630" width="60" height="30" as="geometry" />
        </mxCell>
        <mxCell id="KKY4X85VJavsMQhiZZJZ-30" value="" style="endArrow=none;html=1;rounded=0;entryX=-0.036;entryY=0.349;entryDx=0;entryDy=0;entryPerimeter=0;" edge="1" parent="1" source="KKY4X85VJavsMQhiZZJZ-38" target="KKY4X85VJavsMQhiZZJZ-31">
          <mxGeometry width="50" height="50" relative="1" as="geometry">
            <mxPoint x="1260" y="566" as="sourcePoint" />
            <mxPoint x="1030" y="665" as="targetPoint" />
          </mxGeometry>
        </mxCell>
        <mxCell id="KKY4X85VJavsMQhiZZJZ-31" value="&lt;font style=&quot;vertical-align: inherit;&quot; dir=&quot;auto&quot;&gt;&lt;font style=&quot;vertical-align: inherit;&quot; dir=&quot;auto&quot;&gt;include&lt;/font&gt;&lt;/font&gt;" style="text;html=1;align=center;verticalAlign=middle;resizable=0;points=[];autosize=1;strokeColor=none;fillColor=none;" vertex="1" parent="1">
          <mxGeometry x="490" y="555" width="60" height="30" as="geometry" />
        </mxCell>
        <mxCell id="KKY4X85VJavsMQhiZZJZ-38" value="&lt;font style=&quot;vertical-align: inherit;&quot; dir=&quot;auto&quot;&gt;&lt;font style=&quot;vertical-align: inherit;&quot; dir=&quot;auto&quot;&gt;administrador&lt;/font&gt;&lt;/font&gt;" style="shape=umlActor;verticalLabelPosition=bottom;verticalAlign=top;html=1;outlineConnect=0;" vertex="1" parent="1">
          <mxGeometry x="370" y="650" width="30" height="60" as="geometry" />
        </mxCell>
        <mxCell id="KKY4X85VJavsMQhiZZJZ-40" value="&lt;font style=&quot;vertical-align: inherit;&quot; dir=&quot;auto&quot;&gt;&lt;font style=&quot;vertical-align: inherit;&quot; dir=&quot;auto&quot;&gt;&lt;font style=&quot;vertical-align: inherit;&quot; dir=&quot;auto&quot;&gt;&lt;font style=&quot;vertical-align: inherit;&quot; dir=&quot;auto&quot;&gt;generar&lt;/font&gt;&lt;/font&gt;&lt;/font&gt;&lt;/font&gt;" style="ellipse;whiteSpace=wrap;html=1;" vertex="1" parent="1">
          <mxGeometry x="630" y="690" width="50" height="30" as="geometry" />
        </mxCell>
        <mxCell id="KKY4X85VJavsMQhiZZJZ-41" value="" style="endArrow=none;html=1;rounded=0;exitX=-0.021;exitY=0.349;exitDx=0;exitDy=0;exitPerimeter=0;entryX=1;entryY=0.5;entryDx=0;entryDy=0;" edge="1" parent="1" source="KKY4X85VJavsMQhiZZJZ-43" target="KKY4X85VJavsMQhiZZJZ-40">
          <mxGeometry width="50" height="50" relative="1" as="geometry">
            <mxPoint x="1361" y="692" as="sourcePoint" />
            <mxPoint x="1191" y="660" as="targetPoint" />
          </mxGeometry>
        </mxCell>
        <mxCell id="KKY4X85VJavsMQhiZZJZ-42" value="" style="endArrow=none;html=1;rounded=0;entryX=1;entryY=0.5;entryDx=0;entryDy=0;" edge="1" parent="1" source="KKY4X85VJavsMQhiZZJZ-3" target="KKY4X85VJavsMQhiZZJZ-43">
          <mxGeometry width="50" height="50" relative="1" as="geometry">
            <mxPoint x="1586" y="730" as="sourcePoint" />
            <mxPoint x="1341" y="675" as="targetPoint" />
          </mxGeometry>
        </mxCell>
        <mxCell id="KKY4X85VJavsMQhiZZJZ-43" value="&lt;font style=&quot;vertical-align: inherit;&quot; dir=&quot;auto&quot;&gt;&lt;font style=&quot;vertical-align: inherit;&quot; dir=&quot;auto&quot;&gt;include&lt;/font&gt;&lt;/font&gt;" style="text;html=1;align=center;verticalAlign=middle;resizable=0;points=[];autosize=1;strokeColor=none;fillColor=none;" vertex="1" parent="1">
          <mxGeometry x="1090" y="700" width="60" height="30" as="geometry" />
        </mxCell>
        <mxCell id="KKY4X85VJavsMQhiZZJZ-45" value="&lt;font style=&quot;vertical-align: inherit;&quot; dir=&quot;auto&quot;&gt;&lt;font style=&quot;vertical-align: inherit;&quot; dir=&quot;auto&quot;&gt;&lt;font style=&quot;vertical-align: inherit;&quot; dir=&quot;auto&quot;&gt;&lt;font style=&quot;vertical-align: inherit;&quot; dir=&quot;auto&quot;&gt;registrar&lt;/font&gt;&lt;/font&gt;&lt;/font&gt;&lt;/font&gt;" style="ellipse;whiteSpace=wrap;html=1;" vertex="1" parent="1">
          <mxGeometry x="755" y="340" width="50" height="30" as="geometry" />
        </mxCell>
        <mxCell id="KKY4X85VJavsMQhiZZJZ-46" value="" style="endArrow=none;html=1;rounded=0;exitX=-0.021;exitY=0.349;exitDx=0;exitDy=0;exitPerimeter=0;entryX=1;entryY=0.5;entryDx=0;entryDy=0;" edge="1" parent="1" source="KKY4X85VJavsMQhiZZJZ-48" target="KKY4X85VJavsMQhiZZJZ-45">
          <mxGeometry width="50" height="50" relative="1" as="geometry">
            <mxPoint x="1491" y="702" as="sourcePoint" />
            <mxPoint x="1321" y="670" as="targetPoint" />
          </mxGeometry>
        </mxCell>
        <mxCell id="KKY4X85VJavsMQhiZZJZ-47" value="" style="endArrow=none;html=1;rounded=0;exitX=0.5;exitY=0.5;exitDx=0;exitDy=0;exitPerimeter=0;entryX=1;entryY=0.5;entryDx=0;entryDy=0;" edge="1" parent="1" source="KKY4X85VJavsMQhiZZJZ-3" target="KKY4X85VJavsMQhiZZJZ-48">
          <mxGeometry width="50" height="50" relative="1" as="geometry">
            <mxPoint x="1716" y="740" as="sourcePoint" />
            <mxPoint x="1471" y="685" as="targetPoint" />
          </mxGeometry>
        </mxCell>
        <mxCell id="KKY4X85VJavsMQhiZZJZ-48" value="&lt;font style=&quot;vertical-align: inherit;&quot; dir=&quot;auto&quot;&gt;&lt;font style=&quot;vertical-align: inherit;&quot; dir=&quot;auto&quot;&gt;include&lt;/font&gt;&lt;/font&gt;" style="text;html=1;align=center;verticalAlign=middle;resizable=0;points=[];autosize=1;strokeColor=none;fillColor=none;" vertex="1" parent="1">
          <mxGeometry x="1090" y="350" width="60" height="30" as="geometry" />
        </mxCell>
        <mxCell id="KKY4X85VJavsMQhiZZJZ-50" value="" style="endArrow=none;html=1;rounded=0;entryX=0.5;entryY=1;entryDx=0;entryDy=0;" edge="1" parent="1" source="KKY4X85VJavsMQhiZZJZ-51" target="KKY4X85VJavsMQhiZZJZ-45">
          <mxGeometry width="50" height="50" relative="1" as="geometry">
            <mxPoint x="880" y="570" as="sourcePoint" />
            <mxPoint x="930" y="520" as="targetPoint" />
          </mxGeometry>
        </mxCell>
        <mxCell id="KKY4X85VJavsMQhiZZJZ-52" value="" style="endArrow=none;html=1;rounded=0;entryX=0.5;entryY=1;entryDx=0;entryDy=0;" edge="1" parent="1" source="KKY4X85VJavsMQhiZZJZ-4" target="KKY4X85VJavsMQhiZZJZ-51">
          <mxGeometry width="50" height="50" relative="1" as="geometry">
            <mxPoint x="901" y="515" as="sourcePoint" />
            <mxPoint x="955" y="380" as="targetPoint" />
          </mxGeometry>
        </mxCell>
        <mxCell id="KKY4X85VJavsMQhiZZJZ-51" value="&lt;font style=&quot;vertical-align: inherit;&quot; dir=&quot;auto&quot;&gt;&lt;font style=&quot;vertical-align: inherit;&quot; dir=&quot;auto&quot;&gt;include&lt;/font&gt;&lt;/font&gt;" style="text;html=1;align=center;verticalAlign=middle;resizable=0;points=[];autosize=1;strokeColor=none;fillColor=none;" vertex="1" parent="1">
          <mxGeometry x="745" y="425" width="60" height="30" as="geometry" />
        </mxCell>
        <mxCell id="KKY4X85VJavsMQhiZZJZ-53" value="" style="endArrow=none;html=1;rounded=0;entryX=0.5;entryY=1;entryDx=0;entryDy=0;exitX=0;exitY=0;exitDx=0;exitDy=0;" edge="1" parent="1" source="KKY4X85VJavsMQhiZZJZ-54" target="KKY4X85VJavsMQhiZZJZ-4">
          <mxGeometry width="50" height="50" relative="1" as="geometry">
            <mxPoint x="878" y="635" as="sourcePoint" />
            <mxPoint x="870" y="580" as="targetPoint" />
          </mxGeometry>
        </mxCell>
        <mxCell id="KKY4X85VJavsMQhiZZJZ-55" value="" style="endArrow=none;html=1;rounded=0;entryX=0.5;entryY=1;entryDx=0;entryDy=0;exitX=0;exitY=0;exitDx=0;exitDy=0;" edge="1" parent="1" source="KKY4X85VJavsMQhiZZJZ-9" target="KKY4X85VJavsMQhiZZJZ-54">
          <mxGeometry width="50" height="50" relative="1" as="geometry">
            <mxPoint x="956" y="644" as="sourcePoint" />
            <mxPoint x="895" y="545" as="targetPoint" />
          </mxGeometry>
        </mxCell>
        <mxCell id="KKY4X85VJavsMQhiZZJZ-54" value="&lt;font style=&quot;vertical-align: inherit;&quot; dir=&quot;auto&quot;&gt;&lt;font style=&quot;vertical-align: inherit;&quot; dir=&quot;auto&quot;&gt;include&lt;/font&gt;&lt;/font&gt;" style="text;html=1;align=center;verticalAlign=middle;resizable=0;points=[];autosize=1;strokeColor=none;fillColor=none;" vertex="1" parent="1">
          <mxGeometry x="840" y="620" width="60" height="30" as="geometry" />
        </mxCell>
        <mxCell id="KKY4X85VJavsMQhiZZJZ-56" value="" style="endArrow=none;html=1;rounded=0;exitX=0;exitY=0.5;exitDx=0;exitDy=0;entryX=1;entryY=0.5;entryDx=0;entryDy=0;" edge="1" parent="1" source="KKY4X85VJavsMQhiZZJZ-57" target="KKY4X85VJavsMQhiZZJZ-4">
          <mxGeometry width="50" height="50" relative="1" as="geometry">
            <mxPoint x="1180" y="570" as="sourcePoint" />
            <mxPoint x="890" y="600" as="targetPoint" />
          </mxGeometry>
        </mxCell>
        <mxCell id="KKY4X85VJavsMQhiZZJZ-58" value="" style="endArrow=none;html=1;rounded=0;exitX=0;exitY=0.5;exitDx=0;exitDy=0;entryX=1;entryY=0.5;entryDx=0;entryDy=0;" edge="1" parent="1" source="KKY4X85VJavsMQhiZZJZ-8" target="KKY4X85VJavsMQhiZZJZ-57">
          <mxGeometry width="50" height="50" relative="1" as="geometry">
            <mxPoint x="999" y="585" as="sourcePoint" />
            <mxPoint x="800" y="530" as="targetPoint" />
          </mxGeometry>
        </mxCell>
        <mxCell id="KKY4X85VJavsMQhiZZJZ-57" value="&lt;font style=&quot;vertical-align: inherit;&quot; dir=&quot;auto&quot;&gt;&lt;font style=&quot;vertical-align: inherit;&quot; dir=&quot;auto&quot;&gt;extends&lt;/font&gt;&lt;/font&gt;" style="text;html=1;align=center;verticalAlign=middle;resizable=0;points=[];autosize=1;strokeColor=none;fillColor=none;" vertex="1" parent="1">
          <mxGeometry x="869" y="545" width="70" height="30" as="geometry" />
        </mxCell>
        <mxCell id="KKY4X85VJavsMQhiZZJZ-59" value="" style="endArrow=none;html=1;rounded=0;entryX=0;entryY=1;entryDx=0;entryDy=0;exitX=0.5;exitY=0;exitDx=0;exitDy=0;" edge="1" parent="1" source="KKY4X85VJavsMQhiZZJZ-60" target="KKY4X85VJavsMQhiZZJZ-4">
          <mxGeometry width="50" height="50" relative="1" as="geometry">
            <mxPoint x="795" y="705" as="sourcePoint" />
            <mxPoint x="730" y="630" as="targetPoint" />
          </mxGeometry>
        </mxCell>
        <mxCell id="KKY4X85VJavsMQhiZZJZ-61" value="" style="endArrow=none;html=1;rounded=0;entryX=0;entryY=1;entryDx=0;entryDy=0;exitX=0.5;exitY=0;exitDx=0;exitDy=0;" edge="1" parent="1" source="KKY4X85VJavsMQhiZZJZ-40" target="KKY4X85VJavsMQhiZZJZ-60">
          <mxGeometry width="50" height="50" relative="1" as="geometry">
            <mxPoint x="655" y="690" as="sourcePoint" />
            <mxPoint x="757" y="541" as="targetPoint" />
          </mxGeometry>
        </mxCell>
        <mxCell id="KKY4X85VJavsMQhiZZJZ-60" value="&lt;font style=&quot;vertical-align: inherit;&quot; dir=&quot;auto&quot;&gt;&lt;font style=&quot;vertical-align: inherit;&quot; dir=&quot;auto&quot;&gt;extends&lt;/font&gt;&lt;/font&gt;" style="text;html=1;align=center;verticalAlign=middle;resizable=0;points=[];autosize=1;strokeColor=none;fillColor=none;" vertex="1" parent="1">
          <mxGeometry x="675" y="610" width="70" height="30" as="geometry" />
        </mxCell>
      </root>
    </mxGraphModel>
  </diagram>
</mxfile>
